<svg viewBox="0 0 519.081 538.506" xmlns="http://www.w3.org/2000/svg" xmlns:xlink="http://www.w3.org/1999/xlink" width="519.081421" height="538.505676" fill="none" clip-path="url(#clipPath_0)" customFrame="url(#clipPath_0)">
	<defs>
		<clipPath id="clipPath_0">
			<rect width="538.505676" height="519.081421" x="0.000000" y="0.000000" rx="259.540710" fill="rgb(255,255,255)" transform="matrix(-2.36193e-16,-1,1,-2.35652e-16,0,538.506)" />
		</clipPath>
	</defs>
	<rect id="Frame 2" width="538.505676" height="519.081421" x="0.000000" y="0.000000" rx="259.540710" transform="matrix(-2.36193e-16,-1,1,-2.35652e-16,0,538.506)" />
	<line id="Line 1" x1="0" x2="518.544556" y1="0" y2="0" stroke="rgb(255,255,255)" stroke-opacity="0.219999999" stroke-width="2.00208759" transform="matrix(-1,1.45013e-16,-1.45554e-16,-1,518.543,518.485)" />
	<line id="Line 2" x1="0" x2="518.544556" y1="0" y2="0" stroke="rgb(255,255,255)" stroke-opacity="0.219999999" stroke-width="2.00208759" transform="matrix(-1,1.45013e-16,-1.45554e-16,-1,518.543,498.464)" />
	<line id="Line 3" x1="0" x2="518.544556" y1="0" y2="0" stroke="rgb(255,255,255)" stroke-opacity="0.219999999" stroke-width="2.00208759" transform="matrix(-1,1.45013e-16,-1.45554e-16,-1,518.543,478.443)" />
	<line id="Line 4" x1="0" x2="518.544556" y1="0" y2="0" stroke="rgb(255,255,255)" stroke-opacity="0.219999999" stroke-width="2.00208759" transform="matrix(-1,1.45013e-16,-1.45554e-16,-1,518.543,458.422)" />
	<line id="Line 5" x1="0" x2="518.544556" y1="0" y2="0" stroke="rgb(255,255,255)" stroke-opacity="0.219999999" stroke-width="2.00208759" transform="matrix(-1,1.45013e-16,-1.45554e-16,-1,518.543,438.401)" />
	<line id="Line 6" x1="0" x2="518.544556" y1="0" y2="0" stroke="rgb(255,255,255)" stroke-opacity="0.219999999" stroke-width="2.00208759" transform="matrix(-1,1.45013e-16,-1.45554e-16,-1,518.543,418.38)" />
	<line id="Line 7" x1="0" x2="518.544556" y1="0" y2="0" stroke="rgb(255,255,255)" stroke-opacity="0.219999999" stroke-width="2.00208759" transform="matrix(-1,1.45013e-16,-1.45554e-16,-1,518.543,398.36)" />
	<line id="Line 8" x1="0" x2="518.544556" y1="0" y2="0" stroke="rgb(255,255,255)" stroke-opacity="0.219999999" stroke-width="2.00208759" transform="matrix(-1,1.45013e-16,-1.45554e-16,-1,518.543,378.339)" />
	<line id="Line 9" x1="0" x2="518.544556" y1="0" y2="0" stroke="rgb(255,255,255)" stroke-opacity="0.219999999" stroke-width="2.00208759" transform="matrix(-1,1.45013e-16,-1.45554e-16,-1,518.543,358.318)" />
	<line id="Line 10" x1="0" x2="518.544556" y1="0" y2="0" stroke="rgb(255,255,255)" stroke-opacity="0.219999999" stroke-width="2.00208759" transform="matrix(-1,1.45013e-16,-1.45554e-16,-1,518.543,338.297)" />
	<line id="Line 11" x1="0" x2="518.544556" y1="0" y2="0" stroke="rgb(255,255,255)" stroke-opacity="0.219999999" stroke-width="2.00208759" transform="matrix(-1,1.45013e-16,-1.45554e-16,-1,518.543,318.276)" />
	<line id="Line 12" x1="0" x2="518.544556" y1="0" y2="0" stroke="rgb(255,255,255)" stroke-opacity="0.219999999" stroke-width="2.00208759" transform="matrix(-1,1.45013e-16,-1.45554e-16,-1,518.543,298.255)" />
	<line id="Line 13" x1="0" x2="518.544556" y1="0" y2="0" stroke="rgb(255,255,255)" stroke-opacity="0.219999999" stroke-width="2.00208759" transform="matrix(-1,1.45013e-16,-1.45554e-16,-1,518.543,278.234)" />
	<line id="Line 14" x1="0" x2="518.544556" y1="0" y2="0" stroke="rgb(255,255,255)" stroke-opacity="0.219999999" stroke-width="2.00208759" transform="matrix(-1,1.45013e-16,-1.45554e-16,-1,518.543,258.213)" />
	<line id="Line 15" x1="0" x2="518.544556" y1="0" y2="0" stroke="rgb(255,255,255)" stroke-opacity="0.219999999" stroke-width="2.00208759" transform="matrix(-1,1.45013e-16,-1.45554e-16,-1,518.543,238.193)" />
	<line id="Line 16" x1="0" x2="518.544556" y1="0" y2="0" stroke="rgb(255,255,255)" stroke-opacity="0.219999999" stroke-width="2.00208759" transform="matrix(-1,1.45013e-16,-1.45554e-16,-1,518.543,218.172)" />
	<line id="Line 17" x1="0" x2="518.544556" y1="0" y2="0" stroke="rgb(255,255,255)" stroke-opacity="0.219999999" stroke-width="2.00208759" transform="matrix(-1,1.45013e-16,-1.45554e-16,-1,518.543,198.151)" />
	<line id="Line 18" x1="0" x2="518.544556" y1="0" y2="0" stroke="rgb(255,255,255)" stroke-opacity="0.219999999" stroke-width="2.00208759" transform="matrix(-1,1.45013e-16,-1.45554e-16,-1,518.543,178.13)" />
	<line id="Line 19" x1="0" x2="518.544556" y1="0" y2="0" stroke="rgb(255,255,255)" stroke-opacity="0.219999999" stroke-width="2.00208759" transform="matrix(-1,1.45013e-16,-1.45554e-16,-1,518.543,158.109)" />
	<line id="Line 20" x1="0" x2="518.544556" y1="0" y2="0" stroke="rgb(255,255,255)" stroke-opacity="0.219999999" stroke-width="2.00208759" transform="matrix(-1,1.45013e-16,-1.45554e-16,-1,518.543,138.088)" />
	<line id="Line 21" x1="0" x2="518.544556" y1="0" y2="0" stroke="rgb(255,255,255)" stroke-opacity="0.219999999" stroke-width="2.00208759" transform="matrix(-1,1.45013e-16,-1.45554e-16,-1,518.543,118.067)" />
	<line id="Line 22" x1="0" x2="518.544556" y1="0" y2="0" stroke="rgb(255,255,255)" stroke-opacity="0.219999999" stroke-width="2.00208759" transform="matrix(-1,1.45013e-16,-1.45554e-16,-1,518.543,98.0464)" />
	<line id="Line 23" x1="0" x2="518.544556" y1="0" y2="0" stroke="rgb(255,255,255)" stroke-opacity="0.219999999" stroke-width="2.00208759" transform="matrix(-1,1.45013e-16,-1.45554e-16,-1,518.543,78.0255)" />
	<line id="Line 24" x1="0" x2="518.544556" y1="0" y2="0" stroke="rgb(255,255,255)" stroke-opacity="0.219999999" stroke-width="2.00208759" transform="matrix(-1,1.45013e-16,-1.45554e-16,-1,518.543,58.0046)" />
	<line id="Line 25" x1="0" x2="518.544556" y1="0" y2="0" stroke="rgb(255,255,255)" stroke-opacity="0.219999999" stroke-width="2.00208759" transform="matrix(-1,1.45013e-16,-1.45554e-16,-1,518.543,37.9838)" />
	<line id="Line 26" x1="0" x2="518.544556" y1="0" y2="0" stroke="rgb(255,255,255)" stroke-opacity="0.219999999" stroke-width="2.00208759" transform="matrix(-1,1.45013e-16,-1.45554e-16,-1,518.543,17.9629)" />
	<line id="Line 27" x1="0" x2="538.595093" y1="0" y2="0" stroke="rgb(255,255,255)" stroke-opacity="0.219999999" stroke-width="2.00208759" transform="matrix(2.59938e-16,-1,1,2.60479e-16,18.0188,538.522)" />
	<line id="Line 28" x1="0" x2="538.595093" y1="0" y2="0" stroke="rgb(255,255,255)" stroke-opacity="0.219999999" stroke-width="2.00208759" transform="matrix(2.59938e-16,-1,1,2.60479e-16,38.0397,538.522)" />
	<line id="Line 29" x1="0" x2="538.595093" y1="0" y2="0" stroke="rgb(255,255,255)" stroke-opacity="0.219999999" stroke-width="2.00208759" transform="matrix(2.59938e-16,-1,1,2.60479e-16,58.0605,538.522)" />
	<line id="Line 30" x1="0" x2="538.595093" y1="0" y2="0" stroke="rgb(255,255,255)" stroke-opacity="0.219999999" stroke-width="2.00208759" transform="matrix(2.59938e-16,-1,1,2.60479e-16,78.0814,538.522)" />
	<line id="Line 31" x1="0" x2="538.595093" y1="0" y2="0" stroke="rgb(255,255,255)" stroke-opacity="0.219999999" stroke-width="2.00208759" transform="matrix(2.59938e-16,-1,1,2.60479e-16,98.1023,538.522)" />
	<line id="Line 32" x1="0" x2="538.595093" y1="0" y2="0" stroke="rgb(255,255,255)" stroke-opacity="0.219999999" stroke-width="2.00208759" transform="matrix(2.59938e-16,-1,1,2.60479e-16,118.123,538.522)" />
	<line id="Line 33" x1="0" x2="538.595093" y1="0" y2="0" stroke="rgb(255,255,255)" stroke-opacity="0.219999999" stroke-width="2.00208759" transform="matrix(2.59938e-16,-1,1,2.60479e-16,138.144,538.522)" />
	<line id="Line 34" x1="0" x2="538.595093" y1="0" y2="0" stroke="rgb(255,255,255)" stroke-opacity="0.219999999" stroke-width="2.00208759" transform="matrix(2.59938e-16,-1,1,2.60479e-16,158.165,538.522)" />
	<line id="Line 35" x1="0" x2="538.595093" y1="0" y2="0" stroke="rgb(255,255,255)" stroke-opacity="0.219999999" stroke-width="2.00208759" transform="matrix(2.59938e-16,-1,1,2.60479e-16,178.186,538.522)" />
	<line id="Line 36" x1="0" x2="538.595093" y1="0" y2="0" stroke="rgb(255,255,255)" stroke-opacity="0.219999999" stroke-width="2.00208759" transform="matrix(2.59938e-16,-1,1,2.60479e-16,198.207,538.522)" />
	<line id="Line 37" x1="0" x2="538.595093" y1="0" y2="0" stroke="rgb(255,255,255)" stroke-opacity="0.219999999" stroke-width="2.00208759" transform="matrix(2.59938e-16,-1,1,2.60479e-16,218.228,538.522)" />
	<line id="Line 38" x1="0" x2="538.595093" y1="0" y2="0" stroke="rgb(255,255,255)" stroke-opacity="0.219999999" stroke-width="2.00208759" transform="matrix(2.59938e-16,-1,1,2.60479e-16,238.248,538.522)" />
	<line id="Line 39" x1="0" x2="538.595093" y1="0" y2="0" stroke="rgb(255,255,255)" stroke-opacity="0.219999999" stroke-width="2.00208759" transform="matrix(2.59938e-16,-1,1,2.60479e-16,258.269,538.522)" />
	<line id="Line 40" x1="0" x2="538.595093" y1="0" y2="0" stroke="rgb(255,255,255)" stroke-opacity="0.219999999" stroke-width="2.00208759" transform="matrix(2.59938e-16,-1,1,2.60479e-16,278.29,538.522)" />
	<line id="Line 41" x1="0" x2="538.595093" y1="0" y2="0" stroke="rgb(255,255,255)" stroke-opacity="0.219999999" stroke-width="2.00208759" transform="matrix(2.59938e-16,-1,1,2.60479e-16,298.311,538.522)" />
	<line id="Line 42" x1="0" x2="538.595093" y1="0" y2="0" stroke="rgb(255,255,255)" stroke-opacity="0.219999999" stroke-width="2.00208759" transform="matrix(2.59938e-16,-1,1,2.60479e-16,318.332,538.522)" />
	<line id="Line 43" x1="0" x2="538.595093" y1="0" y2="0" stroke="rgb(255,255,255)" stroke-opacity="0.219999999" stroke-width="2.00208759" transform="matrix(2.59938e-16,-1,1,2.60479e-16,338.353,538.522)" />
	<line id="Line 44" x1="0" x2="538.595093" y1="0" y2="0" stroke="rgb(255,255,255)" stroke-opacity="0.219999999" stroke-width="2.00208759" transform="matrix(2.59938e-16,-1,1,2.60479e-16,358.374,538.522)" />
	<line id="Line 45" x1="0" x2="538.595093" y1="0" y2="0" stroke="rgb(255,255,255)" stroke-opacity="0.219999999" stroke-width="2.00208759" transform="matrix(2.59938e-16,-1,1,2.60479e-16,378.395,538.522)" />
	<line id="Line 46" x1="0" x2="538.595093" y1="0" y2="0" stroke="rgb(255,255,255)" stroke-opacity="0.219999999" stroke-width="2.00208759" transform="matrix(2.59938e-16,-1,1,2.60479e-16,398.415,538.522)" />
	<line id="Line 47" x1="0" x2="538.595093" y1="0" y2="0" stroke="rgb(255,255,255)" stroke-opacity="0.219999999" stroke-width="2.00208759" transform="matrix(2.59938e-16,-1,1,2.60479e-16,418.436,538.522)" />
	<line id="Line 48" x1="0" x2="538.595093" y1="0" y2="0" stroke="rgb(255,255,255)" stroke-opacity="0.219999999" stroke-width="2.00208759" transform="matrix(2.59938e-16,-1,1,2.60479e-16,438.457,538.522)" />
	<line id="Line 49" x1="0" x2="538.595093" y1="0" y2="0" stroke="rgb(255,255,255)" stroke-opacity="0.219999999" stroke-width="2.00208759" transform="matrix(2.59938e-16,-1,1,2.60479e-16,458.478,538.522)" />
	<line id="Line 50" x1="0" x2="538.595093" y1="0" y2="0" stroke="rgb(255,255,255)" stroke-opacity="0.219999999" stroke-width="2.00208759" transform="matrix(2.59938e-16,-1,1,2.60479e-16,478.499,538.522)" />
	<line id="Line 51" x1="0" x2="538.595093" y1="0" y2="0" stroke="rgb(255,255,255)" stroke-opacity="0.219999999" stroke-width="2.00208759" transform="matrix(2.59938e-16,-1,1,2.60479e-16,498.52,538.522)" />
</svg>
