<svg viewBox="0 0 25.123 25.123" xmlns="http://www.w3.org/2000/svg" xmlns:xlink="http://www.w3.org/1999/xlink" width="25.123047" height="25.123047" fill="none">
	<rect id="grid_view_black_24dp 1" width="25.123043" height="25.123043" x="0.000000" y="0.000000" fill="rgb(255,255,255)" fill-opacity="0" />
	<g id="Group">
		<path id="Vector" />
	</g>
	<g id="Group">
		<g id="Group">
			<g id="Group">
				<path id="Vector" d="M3.13965 3.14087L3.13965 11.5152L11.514 11.5152L11.514 3.14087L3.13965 3.14087ZM9.42041 9.42163L5.23324 9.42163L5.23324 5.23446L9.42041 5.23446L9.42041 9.42163ZM3.13965 13.6088L3.13965 21.9832L11.514 21.9832L11.514 13.6088L3.13965 13.6088ZM9.42041 19.8896L5.23324 19.8896L5.23324 15.7024L9.42041 15.7024L9.42041 19.8896ZM13.6076 3.14087L13.6076 11.5152L21.9819 11.5152L21.9819 3.14087L13.6076 3.14087ZM19.8883 9.42163L15.7012 9.42163L15.7012 5.23446L19.8883 5.23446L19.8883 9.42163ZM13.6076 13.6088L13.6076 21.9832L21.9819 21.9832L21.9819 13.6088L13.6076 13.6088ZM19.8883 19.8896L15.7012 19.8896L15.7012 15.7024L19.8883 15.7024L19.8883 19.8896Z" fill="rgb(4,4,4)" fill-rule="nonzero" />
			</g>
		</g>
	</g>
</svg>
