<svg viewBox="0 0 25.123 25.123" xmlns="http://www.w3.org/2000/svg" xmlns:xlink="http://www.w3.org/1999/xlink" width="25.123047" height="25.123047" fill="none">
	<rect id="format_list_bulleted_black_24dp 1" width="25.123043" height="25.123043" x="0.000000" y="0.000000" fill="rgb(255,255,255)" fill-opacity="0" />
	<path id="Vector" d="M0 0L25.123 0L25.123 25.123L0 25.123L0 0Z" fill-rule="nonzero" />
	<path id="Vector" d="M4.18787 10.9919C3.31903 10.9919 2.61768 11.6933 2.61768 12.5621C2.61768 13.431 3.31903 14.1323 4.18787 14.1323C5.0567 14.1323 5.75806 13.431 5.75806 12.5621C5.75806 11.6933 5.0567 10.9919 4.18787 10.9919ZM4.18787 4.71118C3.31903 4.71118 2.61768 5.41253 2.61768 6.28137C2.61768 7.15021 3.31903 7.85156 4.18787 7.85156C5.0567 7.85156 5.75806 7.15021 5.75806 6.28137C5.75806 5.41253 5.0567 4.71118 4.18787 4.71118ZM4.18787 17.2727C3.31903 17.2727 2.61768 17.9845 2.61768 18.8429C2.61768 19.7013 3.3295 20.4131 4.18787 20.4131C5.04624 20.4131 5.75806 19.7013 5.75806 18.8429C5.75806 17.9845 5.0567 17.2727 4.18787 17.2727ZM7.32825 19.8897L21.9834 19.8897L21.9834 17.7961L7.32825 17.7961L7.32825 19.8897ZM7.32825 13.6089L21.9834 13.6089L21.9834 11.5153L7.32825 11.5153L7.32825 13.6089ZM7.32825 5.23458L7.32825 7.32817L21.9834 7.32817L21.9834 5.23458L7.32825 5.23458Z" fill="rgb(127.5,127.5,127.5)" fill-rule="nonzero" />
</svg>
