<svg viewBox="0 0 25.123 25.123" xmlns="http://www.w3.org/2000/svg" xmlns:xlink="http://www.w3.org/1999/xlink" width="25.123047" height="25.123047" fill="none">
	<rect id="filter_alt_black_24dp 1" width="25.123043" height="25.123043" x="-0.000061" y="0.000000" fill="rgb(255,255,255)" fill-opacity="0" />
	<g id="Group">
		<path id="Vector" d="M-6.10352e-05 0L25.123 0M25.123 25.123L-6.10352e-05 25.123" fill-rule="nonzero" />
		<path id="Vector" d="M7.32742 6.28158L17.7954 6.28158L12.5509 12.8764L7.32742 6.28158ZM4.44874 5.87333C6.56326 8.58452 10.4678 13.6091 10.4678 13.6091L10.4678 19.8899C10.4678 20.4656 10.9389 20.9367 11.5146 20.9367L13.6082 20.9367C14.1839 20.9367 14.655 20.4656 14.655 19.8899L14.655 13.6091C14.655 13.6091 18.549 8.58452 20.6636 5.87333C21.1974 5.18244 20.7054 4.18799 19.8366 4.18799L5.27571 4.18799C4.40687 4.18799 3.91487 5.18244 4.44874 5.87333Z" fill="rgb(127.5,127.5,127.5)" fill-rule="nonzero" />
		<path id="Vector" d="M-6.10352e-05 0L25.123 0L25.123 25.123L-6.10352e-05 25.123L-6.10352e-05 0Z" fill-rule="nonzero" />
	</g>
</svg>
